<?xml version="1.0" encoding="UTF-8" standalone="no"?>
<svg
   xmlns:dc="http://purl.org/dc/elements/1.1/"
   xmlns:cc="http://creativecommons.org/ns#"
   xmlns:rdf="http://www.w3.org/1999/02/22-rdf-syntax-ns#"
   xmlns:svg="http://www.w3.org/2000/svg"
   xmlns="http://www.w3.org/2000/svg"
   xmlns:sodipodi="http://sodipodi.sourceforge.net/DTD/sodipodi-0.dtd"
   xmlns:inkscape="http://www.inkscape.org/namespaces/inkscape"
   width="3072"
   height="1024"
   viewBox="0 0 812.79996 270.93334"
   version="1.1"
   id="svg8"
   inkscape:version="1.0.2-2 (e86c870879, 2021-01-15)"
   sodipodi:docname="logo-rect.svg">
  <defs
     id="defs2">
    <rect
       x="333.01783"
       y="102.89877"
       width="1.4967094"
       height="16.089626"
       id="rect1465" />
    <rect
       x="213.28108"
       y="53.133182"
       width="539.56372"
       height="187.83702"
       id="rect1457" />
    <rect
       x="63.592251"
       y="62.239227"
       width="138.00871"
       height="129.21404"
       id="rect842" />
    <filter
       inkscape:collect="always"
       style="color-interpolation-filters:sRGB"
       id="filter1439"
       x="-0.13341157"
       width="1.2668231"
       y="-0.17133933"
       height="1.3426787">
      <feGaussianBlur
         inkscape:collect="always"
         stdDeviation="8.44396"
         id="feGaussianBlur1441" />
    </filter>
  </defs>
  <sodipodi:namedview
     id="base"
     pagecolor="#000000"
     bordercolor="#ffffff"
     borderopacity="1"
     inkscape:pageopacity="0"
     inkscape:pageshadow="2"
     inkscape:zoom="0.5"
     inkscape:cx="1414.0649"
     inkscape:cy="640.83842"
     inkscape:document-units="mm"
     inkscape:current-layer="g1688"
     inkscape:document-rotation="0"
     showgrid="false"
     units="px"
     inkscape:showpageshadow="false"
     inkscape:pagecheckerboard="true"
     inkscape:window-width="2560"
     inkscape:window-height="1369"
     inkscape:window-x="1912"
     inkscape:window-y="-8"
     inkscape:window-maximized="1" />
  <metadata
     id="metadata5">
    <rdf:RDF>
      <cc:Work
         rdf:about="">
        <dc:format>image/svg+xml</dc:format>
        <dc:type
           rdf:resource="http://purl.org/dc/dcmitype/StillImage" />
        <dc:title></dc:title>
      </cc:Work>
    </rdf:RDF>
  </metadata>
  <g
     inkscape:label="Layer 1"
     inkscape:groupmode="layer"
     id="layer1">
    <rect
       style="fill:#1e1e1e;fill-opacity:1;fill-rule:evenodd;stroke:none;stroke-width:2.25347;stroke-linejoin:round;stop-color:#000000"
       id="rect1445"
       width="812.79999"
       height="270.93332"
       x="6.1035153e-06"
       y="7.1207683e-06"
       ry="38.251198" />
    <path
       id="rect1447"
       style="fill:#212121;fill-opacity:1;fill-rule:evenodd;stroke:none;stroke-width:4.71686;stroke-linejoin:round;stop-color:#000000"
       d="M 3072 431.41406 L 0 721.91992 L 0 879.42773 C 1.8947806e-14 959.52032 64.479679 1024 144.57227 1024 L 2927.4277 1024 C 3007.5203 1024 3072 959.52032 3072 879.42773 L 3072 431.41406 z "
       transform="scale(0.26458333)" />
    <text
       xml:space="preserve"
       id="text1463"
       style="font-style:normal;font-weight:normal;font-size:10.5833px;line-height:1.25;font-family:sans-serif;white-space:pre;shape-inside:url(#rect1465);fill:#000000;fill-opacity:1;stroke:none;"><tspan
         x="333.01758"
         y="112.5539"><tspan>
</tspan></tspan></text>
    <g
       id="g1501"
       transform="translate(18.973196)">
      <g
         id="g1664"
         transform="translate(-14.570644)">
        <g
           id="g1688">
          <g
             id="g1489"
             style="fill:#ffffff;fill-opacity:1"
             transform="translate(216.58704,-128.76262)">
            <g
               id="g1639">
              <text
                 xml:space="preserve"
                 id="text1455"
                 style="font-style:normal;font-weight:normal;font-size:38.1px;line-height:1.25;font-family:sans-serif;white-space:pre;shape-inside:url(#rect1457);fill:#ffffff;fill-opacity:1;stroke:none;"
                 transform="translate(-215.39792,168.60563)"><tspan
                   x="213.28125"
                   y="101.63979"><tspan
                     style="font-style:normal;font-variant:normal;font-weight:600;font-stretch:normal;font-size:52.9167px;font-family:Urbanist;-inkscape-font-specification:'Urbanist Semi-Bold';fill:#ffffff;fill-opacity:1">ticTac</tspan></tspan></text>
              <text
                 xml:space="preserve"
                 style="font-style:normal;font-weight:normal;font-size:23.8125px;line-height:1.25;font-family:sans-serif;fill:#ffffff;fill-opacity:1;stroke:none;stroke-width:0.264583"
                 x="-1.2092285"
                 y="297.9563"
                 id="text1481"><tspan
                   sodipodi:role="line"
                   id="tspan1479"
                   x="-1.2092285"
                   y="297.9563"
                   style="font-style:normal;font-variant:normal;font-weight:500;font-stretch:normal;font-size:23.8125px;font-family:Urbanist;-inkscape-font-specification:'Urbanist Medium';fill:#ffffff;fill-opacity:1;stroke-width:0.264583">a fast and simple programming language in Rust.</tspan></text>
            </g>
          </g>
          <g
             id="g1647">
            <g
               id="g1672">
              <g
                 id="g898"
                 transform="matrix(1.8715745,-0.33161639,0.36799603,2.0768938,271.62298,-148.03863)">
                <path
                   id="rect858"
                   style="fill:#dddddd;fill-opacity:1;fill-rule:evenodd;stroke:none;stroke-width:0.896964;stroke-linejoin:round;stop-color:#000000"
                   d="m -67.454039,121.08708 h -58.208331 v 13.0328 c 0,17.69827 12.98046,31.94637 29.104165,31.94637 16.123705,0 29.104166,-14.2481 29.104166,-31.94637 z" />
                <path
                   id="path889"
                   style="fill:#ffffff;fill-opacity:1;fill-rule:evenodd;stroke:none;stroke-width:0.896964;stroke-linejoin:round;stop-color:#000000"
                   d="m -96.558205,76.107912 c -16.123705,0 -29.104165,14.248098 -29.104165,31.946368 v 13.0328 h 58.208331 v -13.0328 c 0,-17.69827 -12.98046,-31.946368 -29.104166,-31.946368 z" />
              </g>
              <g
                 id="g1553"
                 transform="matrix(0.75675556,0,0,0.75675556,293.43307,-132.96975)">
                <path
                   id="path1153"
                   style="fill:#000000;fill-opacity:1;fill-rule:evenodd;stroke-width:4.43488;stroke-linejoin:round;filter:url(#filter1439);stop-color:#000000"
                   d="m -221.46136,295.58161 v 11.82793 h 40.46843 V 413.85862 H -169.165 V 307.40954 h 40.55092 v -11.82793 z m -43.84653,7.26498 0.0825,26.52747 h -15.29082 v 11.82793 h 15.29082 l -0.0825,72.65663 h 11.82564 l 0.0848,-72.65663 h 20.19297 v -11.82793 h -20.19296 l -0.0848,-26.52747 z" />
                <path
                   id="rect846"
                   style="fill:#ffffff;fill-opacity:1;fill-rule:evenodd;stroke-width:4.43488;stroke-linejoin:round;stop-color:#000000"
                   d="m -221.46136,295.58161 v 11.82793 h 40.46843 V 413.85862 H -169.165 V 307.40954 h 40.55092 v -11.82793 z m -43.84653,7.26498 0.0825,26.52747 h -15.29082 v 11.82793 h 15.29082 l -0.0825,72.65663 h 11.82564 l 0.0848,-72.65663 h 20.19297 v -11.82793 h -20.19296 l -0.0848,-26.52747 z" />
              </g>
            </g>
          </g>
        </g>
      </g>
      <g
         id="g1617"
         transform="matrix(0.05980992,0,0,0.05980992,603.63083,104.88928)">
        <g
           id="g1625"
           transform="translate(0,2051.0439)">
          <g
             id="g1631"
             transform="translate(1012.0562,26.544363)">
            <text
               xml:space="preserve"
               style="font-style:normal;font-weight:normal;font-size:10.5833px;line-height:1.25;font-family:sans-serif;fill:#ffffff;fill-opacity:1;stroke:none;stroke-width:0.264583"
               x="649.79388"
               y="138.11249"
               id="text1557"
               transform="matrix(16.719635,0,0,16.719635,-10386.667,-2045.6789)"><tspan
                 sodipodi:role="line"
                 id="tspan1555"
                 x="649.79388"
                 y="138.11249"
                 style="font-style:normal;font-variant:normal;font-weight:bold;font-stretch:normal;font-family:Urbanist;-inkscape-font-specification:'Urbanist Bold';fill:#ffffff;fill-opacity:1;stroke-width:0.264583">tictac-lang/tictac</tspan></text>
            <g
               id="g1561"
               transform="translate(-46.920812)"
               style="fill:#ffffff;fill-opacity:1">
	<path
   d="M 409.132,114.573 C 389.524,80.977 362.927,54.379 329.334,34.773 295.736,15.166 259.057,5.365 219.271,5.365 c -39.781,0 -76.472,9.804 -110.063,29.408 -33.596,19.605 -60.192,46.204 -79.8,79.8 C 9.803,148.168 0,184.854 0,224.63 c 0,47.78 13.94,90.745 41.827,128.906 27.884,38.164 63.906,64.572 108.063,79.227 5.14,0.954 8.945,0.283 11.419,-1.996 2.475,-2.282 3.711,-5.14 3.711,-8.562 0,-0.571 -0.049,-5.708 -0.144,-15.417 -0.098,-9.709 -0.144,-18.179 -0.144,-25.406 l -6.567,1.136 c -4.187,0.767 -9.469,1.092 -15.846,1 -6.374,-0.089 -12.991,-0.757 -19.842,-1.999 -6.854,-1.231 -13.229,-4.086 -19.13,-8.559 -5.898,-4.473 -10.085,-10.328 -12.56,-17.556 l -2.855,-6.57 c -1.903,-4.374 -4.899,-9.233 -8.992,-14.559 -4.093,-5.331 -8.232,-8.945 -12.419,-10.848 l -1.999,-1.431 c -1.332,-0.951 -2.568,-2.098 -3.711,-3.429 -1.142,-1.331 -1.997,-2.663 -2.568,-3.997 -0.572,-1.335 -0.098,-2.43 1.427,-3.289 1.525,-0.859 4.281,-1.276 8.28,-1.276 l 5.708,0.853 c 3.807,0.763 8.516,3.042 14.133,6.851 5.614,3.806 10.229,8.754 13.846,14.842 4.38,7.806 9.657,13.754 15.846,17.847 6.184,4.093 12.419,6.136 18.699,6.136 6.28,0 11.704,-0.476 16.274,-1.423 4.565,-0.952 8.848,-2.383 12.847,-4.285 1.713,-12.758 6.377,-22.559 13.988,-29.41 -10.848,-1.14 -20.601,-2.857 -29.264,-5.14 -8.658,-2.286 -17.605,-5.996 -26.835,-11.14 -9.235,-5.137 -16.896,-11.516 -22.985,-19.126 -6.09,-7.614 -11.088,-17.61 -14.987,-29.979 -3.901,-12.374 -5.852,-26.648 -5.852,-42.826 0,-23.035 7.52,-42.637 22.557,-58.817 -7.044,-17.318 -6.379,-36.732 1.997,-58.24 5.52,-1.715 13.706,-0.428 24.554,3.853 10.85,4.283 18.794,7.952 23.84,10.994 5.046,3.041 9.089,5.618 12.135,7.708 17.705,-4.947 35.976,-7.421 54.818,-7.421 18.842,0 37.117,2.474 54.823,7.421 l 10.849,-6.849 c 7.419,-4.57 16.18,-8.758 26.262,-12.565 10.088,-3.805 17.802,-4.853 23.134,-3.138 8.562,21.509 9.325,40.922 2.279,58.24 15.036,16.18 22.559,35.787 22.559,58.817 0,16.178 -1.958,30.497 -5.853,42.966 -3.9,12.471 -8.941,22.457 -15.125,29.979 -6.191,7.521 -13.901,13.85 -23.131,18.986 -9.232,5.14 -18.182,8.85 -26.84,11.136 -8.662,2.286 -18.415,4.004 -29.263,5.146 9.894,8.562 14.842,22.077 14.842,40.539 v 60.237 c 0,3.422 1.19,6.279 3.572,8.562 2.379,2.279 6.136,2.95 11.276,1.995 44.163,-14.653 80.185,-41.062 108.068,-79.226 27.88,-38.161 41.825,-81.126 41.825,-128.906 -0.01,-39.771 -9.818,-76.454 -29.414,-110.049 z"
   id="path1559"
   style="fill:#ffffff;fill-opacity:1" />

</g>
          </g>
        </g>
        <g
           id="g1563">
</g>
        <g
           id="g1565">
</g>
        <g
           id="g1567">
</g>
        <g
           id="g1569">
</g>
        <g
           id="g1571">
</g>
        <g
           id="g1573">
</g>
        <g
           id="g1575">
</g>
        <g
           id="g1577">
</g>
        <g
           id="g1579">
</g>
        <g
           id="g1581">
</g>
        <g
           id="g1583">
</g>
        <g
           id="g1585">
</g>
        <g
           id="g1587">
</g>
        <g
           id="g1589">
</g>
        <g
           id="g1591">
</g>
      </g>
    </g>
  </g>
</svg>
